<?xml version="1.0" encoding="UTF-8" standalone="no"?>
<svg
   id="Group_2456"
   data-name="Group 2456"
   width="200"
   height="200"
   viewBox="0 0 200 200"
   version="1.1"
   sodipodi:docname="credential-list.svg"
   inkscape:version="1.3.2 (1:1.3.2+202311252150+091e20ef0f)"
   xmlns:inkscape="http://www.inkscape.org/namespaces/inkscape"
   xmlns:sodipodi="http://sodipodi.sourceforge.net/DTD/sodipodi-0.dtd"
   xmlns="http://www.w3.org/2000/svg"
   xmlns:svg="http://www.w3.org/2000/svg">
  <sodipodi:namedview
     id="namedview1"
     pagecolor="#ffffff"
     bordercolor="#000000"
     borderopacity="0.25"
     inkscape:showpageshadow="2"
     inkscape:pageopacity="0.0"
     inkscape:pagecheckerboard="0"
     inkscape:deskcolor="#d1d1d1"
     inkscape:zoom="4.08"
     inkscape:cx="99.877451"
     inkscape:cy="100"
     inkscape:window-width="1850"
     inkscape:window-height="1016"
     inkscape:window-x="0"
     inkscape:window-y="0"
     inkscape:window-maximized="1"
     inkscape:current-layer="Group_2456"
     showgrid="false" />
  <defs
     id="defs1">
    <clipPath
       id="clip-path">
      <rect
         id="Rectangle_1679"
         data-name="Rectangle 1679"
         width="200"
         height="200"
         fill="none" />
    </clipPath>
  </defs>
  <g
     id="Group_2455"
     data-name="Group 2455"
     clip-path="url(#clip-path)">
    <path
       id="Path_683"
       data-name="Path 683"
       d="M140.05,37.14V152.53a6.323,6.323,0,0,1-6.32,6.33H121.54q.345-3.69.35-7.96v-.83l-.59-.59c-.31-.31-7.96-7.78-21.3-7.78s-20.99,7.47-21.3,7.78l-.59.59v.83q0,4.275.35,7.96H66.27a6.323,6.323,0,0,1-6.32-6.33V37.14a6.321,6.321,0,0,1,6.32-6.32h67.46a6.321,6.321,0,0,1,6.32,6.32"
       fill="#8099b3"
       style="fill:#949494" />
    <path
       id="Path_684"
       data-name="Path 684"
       d="M131.07,15.58H68.93a15.005,15.005,0,0,0-15,15V169.42a15.005,15.005,0,0,0,15,15H91.21c-4.54-3.99-9.4-11.5-10.73-25.56H66.27a6.323,6.323,0,0,1-6.32-6.33V37.14a6.321,6.321,0,0,1,6.32-6.32h67.46a6.321,6.321,0,0,1,6.32,6.32V152.53a6.323,6.323,0,0,1-6.32,6.33H119.52c-1.33,14.06-6.19,21.57-10.73,25.56h22.28a15.005,15.005,0,0,0,15-15V30.58a15.005,15.005,0,0,0-15-15M111.7,24.77H89.59a1.885,1.885,0,0,1,0-3.77H111.7a1.885,1.885,0,0,1,0,3.77"
       fill="#036"
       style="fill:#2a2a2a" />
    <path
       id="Path_685"
       data-name="Path 685"
       d="M121.3,149.48c-.31-.31-7.96-7.78-21.3-7.78s-20.99,7.47-21.3,7.78l-.59.59v.83q0,4.275.35,7.96c1.21,13.21,5.42,20.98,9.79,25.56,5.42,5.68,11.08,6.41,11.53,6.46l.22.02.22-.02c.45-.05,6.11-.78,11.53-6.46,4.37-4.58,8.58-12.35,9.79-25.56q.345-3.69.35-7.96v-.83ZM100,186.87c-2.17-.38-17.6-4.15-17.89-35.07a29.284,29.284,0,0,1,35.78,0c-.29,30.95-15.76,34.7-17.89,35.07"
       fill="#335c85"
       style="fill:#545454" />
    <path
       id="Path_686"
       data-name="Path 686"
       d="M117.89,151.8c-.29,30.95-15.76,34.7-17.89,35.07-2.17-.38-17.6-4.15-17.89-35.07a29.284,29.284,0,0,1,35.78,0"
       fill="#8099b3"
       style="fill:#949494" />
    <path
       id="Path_687"
       data-name="Path 687"
       d="M107.933,160.5H92.067A2.013,2.013,0,0,0,90,162.46v10.691a2.013,2.013,0,0,0,2.064,1.959h15.866A2.014,2.014,0,0,0,110,173.151V162.46a2.014,2.014,0,0,0-2.064-1.959m-6.81,8.516v2.648a.451.451,0,0,1-.45.451H99.327a.45.45,0,0,1-.45-.451v-2.648a2.875,2.875,0,1,1,2.246,0"
       fill="#036"
       style="fill:#2a2a2a" />
    <path
       id="Path_688"
       data-name="Path 688"
       d="M106,161.758h-3.371v-3.317a2.6,2.6,0,0,0-5.206,0v3.317H94.05v-3.317a5.974,5.974,0,0,1,11.948,0Z"
       fill="#036"
       style="fill:#2a2a2a" />
    <path
       id="Path_689"
       data-name="Path 689"
       d="M121.536,81.83H78.465a5.417,5.417,0,0,1-5.417-5.417V51.886a5.417,5.417,0,0,1,5.417-5.417h43.071a5.417,5.417,0,0,1,5.417,5.417V76.413a5.417,5.417,0,0,1-5.417,5.417"
       fill="#f9f1c6"
       style="fill:#eeeeee" />
    <rect
       id="Rectangle_1677"
       data-name="Rectangle 1677"
       width="53.905"
       height="35.361"
       rx="5.417"
       transform="translate(73.048 46.469)"
       fill="none"
       stroke="#fcba19"
       stroke-linejoin="round"
       stroke-width="4"
       style="stroke:#bbbbbb" />
    <line
       id="Line_118"
       data-name="Line 118"
       x2="16.511"
       transform="translate(102.643 55.927)"
       fill="none"
       stroke="#fcba19"
       stroke-linecap="round"
       stroke-linejoin="round"
       stroke-width="4"
       style="stroke:#bbbbbb" />
    <line
       id="Line_119"
       data-name="Line 119"
       x2="16.511"
       transform="translate(102.643 64.15)"
       fill="none"
       stroke="#fcba19"
       stroke-linecap="round"
       stroke-linejoin="round"
       stroke-width="4"
       style="stroke:#bbbbbb" />
    <line
       id="Line_120"
       data-name="Line 120"
       x2="16.511"
       transform="translate(102.643 72.372)"
       fill="none"
       stroke="#fcba19"
       stroke-linecap="round"
       stroke-linejoin="round"
       stroke-width="4"
       style="stroke:#bbbbbb" />
    <path
       id="Path_690"
       data-name="Path 690"
       d="M87.809,55.242a4.06,4.06,0,1,1-4.06,4.06,4.06,4.06,0,0,1,4.06-4.06"
       fill="#fcba19"
       style="fill:#bbbbbb" />
    <path
       id="Path_691"
       data-name="Path 691"
       d="M87.81,64.859h0A6.344,6.344,0,0,1,94.153,71.2v.151a.917.917,0,0,1-.916.917H82.383a.917.917,0,0,1-.916-.917V71.2a6.344,6.344,0,0,1,6.343-6.343"
       fill="#fcba19"
       style="fill:#bbbbbb" />
    <path
       id="Path_692"
       data-name="Path 692"
       d="M121.536,127.385H78.465a5.417,5.417,0,0,1-5.417-5.417V97.441a5.417,5.417,0,0,1,5.417-5.417h43.071a5.417,5.417,0,0,1,5.417,5.417v24.527a5.417,5.417,0,0,1-5.417,5.417"
       fill="#f9f1c6"
       style="fill:#eeeeee" />
    <rect
       id="Rectangle_1678"
       data-name="Rectangle 1678"
       width="53.905"
       height="35.361"
       rx="5.417"
       transform="translate(73.048 92.024)"
       fill="none"
       stroke="#fcba19"
       stroke-linejoin="round"
       stroke-width="4"
       style="stroke:#bbbbbb" />
    <line
       id="Line_121"
       data-name="Line 121"
       x2="16.511"
       transform="translate(102.643 101.482)"
       fill="none"
       stroke="#fcba19"
       stroke-linecap="round"
       stroke-linejoin="round"
       stroke-width="4"
       style="stroke:#bbbbbb" />
    <line
       id="Line_122"
       data-name="Line 122"
       x2="16.511"
       transform="translate(102.643 109.704)"
       fill="none"
       stroke="#fcba19"
       stroke-linecap="round"
       stroke-linejoin="round"
       stroke-width="4"
       style="stroke:#bbbbbb" />
    <line
       id="Line_123"
       data-name="Line 123"
       x2="16.511"
       transform="translate(102.643 117.927)"
       fill="none"
       stroke="#fcba19"
       stroke-linecap="round"
       stroke-linejoin="round"
       stroke-width="4"
       style="stroke:#bbbbbb" />
    <path
       id="Path_693"
       data-name="Path 693"
       d="M87.809,100.8a4.06,4.06,0,1,1-4.06,4.06,4.06,4.06,0,0,1,4.06-4.06"
       fill="#fcba19"
       style="fill:#bbbbbb" />
    <path
       id="Path_694"
       data-name="Path 694"
       d="M87.81,110.414h0a6.343,6.343,0,0,1,6.343,6.343v.15a.917.917,0,0,1-.916.917H82.383a.917.917,0,0,1-.916-.917v-.15a6.343,6.343,0,0,1,6.343-6.343"
       fill="#fcba19"
       style="fill:#bbbbbb" />
  </g>
  <path
     style="fill:#ffcc00;stroke-width:0.245098"
     d="M 77.137872,83.566909 C 74.629839,83.063787 72.580086,81.320331 71.664907,78.911775 71.230231,77.767804 71.20098,76.843838 71.20098,64.257543 c 0,-15.710618 -0.06066,-15.222478 2.166397,-17.433655 2.381884,-2.364902 0.59291,-2.216045 26.632623,-2.216045 26.02564,0 24.26767,-0.145173 26.59435,2.196167 2.28541,2.299816 2.20728,1.685423 2.20588,17.347773 -0.001,12.688369 -0.0304,13.615751 -0.46514,14.759992 -0.71859,1.891171 -1.80275,3.074607 -3.64989,3.984083 L 123.05,83.70098 100.61813,83.7391 C 88.280612,83.76007 77.714493,83.68258 77.137872,83.566909 Z m 46.294018,-4.221304 c 1.73192,-1.157 1.69047,-0.784769 1.68489,-15.129919 -0.005,-12.215333 -0.0292,-12.920873 -0.48153,-13.917591 -0.3638,-0.80154 -0.72494,-1.162686 -1.52648,-1.52648 -1.015,-0.460675 -1.78414,-0.476536 -23.10877,-0.476536 -21.324633,0 -22.093769,0.01586 -23.108768,0.476536 -0.80154,0.363794 -1.162686,0.72494 -1.52648,1.52648 -0.452378,0.996718 -0.476789,1.702258 -0.481537,13.917591 -0.0056,14.34515 -0.04703,13.972919 1.684894,15.129919 l 0.832814,0.556356 H 100 122.59908 Z"
     id="path1" />
  <path
     style="fill:#ffcc00;stroke-width:0.245098"
     d="m 86.397185,62.959938 c -2.19641,-0.875827 -3.161971,-3.744359 -1.893803,-5.626193 0.956621,-1.41953 2.057636,-2.001603 3.558253,-1.881137 1.58214,0.127009 2.438436,0.706779 3.17611,2.150439 0.69368,1.357561 0.69368,2.060356 0,3.434697 -0.903858,1.790753 -3.041454,2.639595 -4.84056,1.922194 z"
     id="path2" />
  <path
     style="fill:#ffcc00;stroke-width:0.245098"
     d="m 81.753855,71.707635 c -0.476956,-0.574697 0.115711,-2.890346 1.054912,-4.121722 0.432625,-0.567209 1.325604,-1.364536 1.984397,-1.771837 1.042374,-0.64445 1.422936,-0.739602 2.932713,-0.733267 1.29973,0.0055 1.989091,0.141407 2.748254,0.542004 2.118857,1.118083 3.362439,2.987212 3.385162,5.087971 l 0.01326,1.225491 -5.910063,0.06556 c -4.953449,0.05495 -5.95839,0.0073 -6.208631,-0.294195 z"
     id="path3" />
  <path
     style="fill:#ffcc00;stroke-width:0.245098"
     d="m 101.50364,57.335152 c -1.13751,-0.894769 -0.79577,-2.65227 0.61109,-3.142705 1.02185,-0.356218 16.1528,-0.368103 17.42895,-0.01369 1.49816,0.416065 1.90815,1.965219 0.8106,3.062775 l -0.60161,0.601604 h -8.80161 c -8.53323,0 -8.82131,-0.01549 -9.44742,-0.507984 z"
     id="path4" />
  <path
     style="fill:#ffcc00;stroke-width:0.245098"
     d="m 101.34804,65.441176 c -0.72982,-0.729818 -0.6536,-2.041772 0.1556,-2.678289 0.62597,-0.492387 0.9147,-0.507985 9.40322,-0.507985 8.48852,0 8.77725,0.0156 9.40322,0.507985 0.8092,0.636517 0.88542,1.948471 0.15561,2.678289 -0.47254,0.472532 -0.817,0.490197 -9.55883,0.490197 -8.74183,0 -9.08629,-0.01766 -9.55882,-0.490197 z"
     id="path5" />
  <path
     style="fill:#ffcc00;stroke-width:0.245098"
     d="m 101.50364,73.756721 c -0.8092,-0.636517 -0.88542,-1.948471 -0.1556,-2.67829 0.47253,-0.472531 0.81699,-0.490196 9.55882,-0.490196 8.74183,0 9.08629,0.01767 9.55883,0.490196 0.72981,0.729819 0.65359,2.041773 -0.15561,2.67829 -0.62597,0.492387 -0.9147,0.507985 -9.40322,0.507985 -8.48852,0 -8.77725,-0.0156 -9.40322,-0.507985 z"
     id="path6" />
  <path
     style="fill:#ffcc00;stroke-width:0.245098"
     d="m 86.397185,108.54817 c -2.986541,-1.19089 -3.299296,-5.64455 -0.496788,-7.07428 2.531885,-1.29167 5.419224,0.18581 5.784811,2.96015 0.362245,2.74897 -2.712484,5.14114 -5.288023,4.11413 z"
     id="path7" />
  <path
     style="fill:#ffcc00;stroke-width:0.245098"
     d="m 81.751458,117.29298 c -0.232639,-0.28031 -0.238019,-0.65614 -0.02369,-1.6555 0.813912,-3.79515 4.479435,-5.9334 8.106301,-4.72875 2.398627,0.7967 4.335178,3.52974 4.116052,5.80896 l -0.07757,0.80682 -5.910063,0.0656 c -4.974399,0.0552 -5.957711,0.008 -6.211028,-0.29709 z"
     id="path8" />
  <path
     style="fill:#ffcc00;stroke-width:0.245098"
     d="m 101.46818,102.8385 c -0.7391,-0.7391 -0.79733,-1.81798 -0.1418,-2.62752 l 0.46854,-0.578627 h 9.11194 9.11194 l 0.46854,0.578627 c 0.5983,0.73887 0.59839,1.78017 2.2e-4,2.51922 l -0.46833,0.57862 -8.97035,0.07 -8.97036,0.07 z"
     id="path9" />
  <path
     style="fill:#ffcc00;stroke-width:0.245098"
     d="m 101.39076,110.95234 c -0.7079,-0.75353 -0.69271,-1.89325 0.0344,-2.57628 0.56104,-0.52708 0.66546,-0.53292 9.5161,-0.53292 h 8.94883 l 0.53292,0.56726 c 0.70791,0.75353 0.69271,1.89325 -0.0344,2.57629 -0.56104,0.52707 -0.66545,0.53292 -9.51609,0.53292 h -8.94884 z"
     id="path10" />
  <path
     style="fill:#ffcc00;stroke-width:0.245098"
     d="m 101.50364,119.34496 c -0.78981,-0.62127 -0.87061,-1.85601 -0.1775,-2.71241 l 0.4683,-0.57863 8.29396,-0.0739 c 4.56167,-0.0406 8.65856,-0.007 9.10419,0.075 1.75798,0.32299 2.41824,2.26684 1.11749,3.29001 -0.62597,0.49238 -0.9147,0.50798 -9.40322,0.50798 -8.48852,0 -8.77725,-0.0156 -9.40322,-0.50798 z"
     id="path11" />
  <path
     style="fill:#ffcc00;stroke-width:0.245098"
     d="m 75.490196,128.58505 c -1.657723,-0.78027 -3.200218,-2.40852 -3.799803,-4.01105 -0.467476,-1.24944 -0.489413,-1.91542 -0.489413,-14.85816 0,-15.68809 -0.07855,-15.065771 2.18772,-17.332042 2.343327,-2.343327 0.450528,-2.18772 26.6113,-2.18772 26.16077,0 24.26797,-0.155607 26.6113,2.18772 2.26627,2.266271 2.18772,1.643952 2.18772,17.332042 0,13.04821 -0.0186,13.59969 -0.5011,14.88938 -0.60792,1.62482 -2.09932,3.19304 -3.78812,3.98324 l -1.22549,0.57342 H 100 76.715686 Z m 47.520454,-3.43477 c 0.44745,-0.18695 1.0781,-0.71085 1.40144,-1.16422 L 125,123.16176 V 109.68137 96.20098 l -0.54664,-0.766351 c -1.17387,-1.645666 0.1368,-1.56208 -24.494225,-1.56208 -25.236627,0 -23.445585,-0.144456 -24.535637,1.97892 l -0.556893,1.084806 0.0667,13.112745 0.0667,13.11274 0.587318,0.82348 c 1.109026,1.55495 -0.03302,1.48485 24.35928,1.49536 18.433227,0.008 22.390087,-0.0487 23.064047,-0.33032 z"
     id="path12" />
</svg>
