<?xml version="1.0" encoding="UTF-8" standalone="no"?>
<svg
   width="24"
   height="24"
   viewBox="0 0 24 24"
   version="1.1"
   id="svg1"
   sodipodi:docname="credentialIcon.svg"
   inkscape:version="1.3.2 (1:1.3.2+202311252150+091e20ef0f)"
   xmlns:inkscape="http://www.inkscape.org/namespaces/inkscape"
   xmlns:sodipodi="http://sodipodi.sourceforge.net/DTD/sodipodi-0.dtd"
   xmlns="http://www.w3.org/2000/svg"
   xmlns:svg="http://www.w3.org/2000/svg">
  <sodipodi:namedview
     id="namedview1"
     pagecolor="#ffffff"
     bordercolor="#000000"
     borderopacity="0.25"
     inkscape:showpageshadow="2"
     inkscape:pageopacity="0.0"
     inkscape:pagecheckerboard="0"
     inkscape:deskcolor="#d1d1d1"
     showgrid="false"
     inkscape:zoom="34"
     inkscape:cx="11.985294"
     inkscape:cy="12"
     inkscape:window-width="1850"
     inkscape:window-height="1016"
     inkscape:window-x="0"
     inkscape:window-y="0"
     inkscape:window-maximized="1"
     inkscape:current-layer="svg1" />
  <defs
     id="defs1" />
  <path
     d="M22.5,4.47H1.5c-.83,0-1.5,.67-1.5,1.5v12.05c0,.83,.67,1.5,1.5,1.5H22.5c.83,0,1.5-.67,1.5-1.5V5.97c0-.83-.67-1.5-1.5-1.5ZM5.73,7.29c1.19,0,2.16,.97,2.16,2.16s-.97,2.16-2.16,2.16-2.16-.97-2.16-2.16,.97-2.16,2.16-2.16Zm3.57,9.12H2.16c-.04-.28-.06-.56-.06-.85,0-1.68,.72-3.14,1.8-3.93,.12-.09,.28-.09,.4-.01,.41,.27,.9,.43,1.43,.43s1.02-.16,1.43-.43c.12-.08,.28-.08,.4,.01,1.08,.79,1.8,2.26,1.8,3.93,0,.29-.02,.58-.06,.85Zm6.86-.33h-5.15v-1.45h5.15v1.45Zm5.15-2.21H11v-1.45h10.3v1.45Zm0-2.21H11v-1.45h10.3v1.45Zm0-2.21H11v-1.45h10.3v1.45Z"
     fill="#036"
     id="path1"
     style="fill:#2a2a2a" />
</svg>
