<?xml version="1.0" encoding="UTF-8" standalone="no"?>
<svg
   id="Layer_1"
   viewBox="0 0 200 200"
   version="1.1"
   sodipodi:docname="emptyWallet.svg"
   inkscape:version="1.3.2 (1:1.3.2+202311252150+091e20ef0f)"
   xmlns:inkscape="http://www.inkscape.org/namespaces/inkscape"
   xmlns:sodipodi="http://sodipodi.sourceforge.net/DTD/sodipodi-0.dtd"
   xmlns="http://www.w3.org/2000/svg"
   xmlns:svg="http://www.w3.org/2000/svg">
  <sodipodi:namedview
     id="namedview12"
     pagecolor="#ffffff"
     bordercolor="#000000"
     borderopacity="0.25"
     inkscape:showpageshadow="2"
     inkscape:pageopacity="0.0"
     inkscape:pagecheckerboard="0"
     inkscape:deskcolor="#d1d1d1"
     inkscape:zoom="6.405"
     inkscape:cx="100"
     inkscape:cy="100.07806"
     inkscape:window-width="1850"
     inkscape:window-height="1016"
     inkscape:window-x="0"
     inkscape:window-y="0"
     inkscape:window-maximized="1"
     inkscape:current-layer="Layer_1" />
  <defs
     id="defs1">
    <style
       id="style1">.cls-1{fill:#fcba19;}.cls-2{fill:#f9f1c6;}.cls-3{fill:#036;}.cls-4{fill:#8099b3;}.cls-5{fill:#335c85;}</style>
  </defs>
  <g
     id="g7">
    <g
       id="g2">
      <path
         class="cls-5"
         d="M145.83,59.29v10.24H37.82c-5.65,0-10.24-4.58-10.24-10.24,0-2.82,1.15-5.39,3.01-7.24,1.85-1.86,4.42-3.01,7.24-3.01h97.76c5.65,0,10.24,4.59,10.24,10.24Z"
         id="path1" />
      <path
         class="cls-3"
         d="M147.83,71.53H37.82c-6.75,0-12.24-5.49-12.24-12.24,0-3.28,1.28-6.35,3.6-8.66,2.29-2.31,5.37-3.59,8.65-3.59h97.76c6.75,0,12.24,5.49,12.24,12.24v12.24ZM37.82,51.04c-2.2,0-4.27,.86-5.82,2.42-1.57,1.56-2.43,3.62-2.43,5.83,0,4.55,3.7,8.24,8.24,8.24h106v-8.24c0-4.55-3.7-8.24-8.24-8.24H37.82Z"
         id="path2" />
    </g>
    <g
       id="g4">
      <path
         class="cls-4"
         d="M130.09,119.62v3.78c0,9.24,7.5,16.74,16.72,16.74h29.74v17.48c0,5.67-4.59,10.24-10.24,10.24H37.82c-5.65,0-10.24-4.58-10.24-10.24V59.29c0,5.67,4.59,10.24,10.24,10.24H166.31c5.65,0,10.24,4.59,10.24,10.24v23.12h-29.74c-9.23,0-16.72,7.48-16.72,16.72Z"
         id="path3" />
      <path
         class="cls-3"
         d="M166.31,169.86H37.82c-6.75,0-12.24-5.49-12.24-12.24V59.29h4c0,4.55,3.7,8.24,8.24,8.24H166.31c6.75,0,12.24,5.49,12.24,12.24v25.12h-31.74c-8.12,0-14.72,6.61-14.72,14.72v3.78c0,8.13,6.61,14.74,14.72,14.74h31.74v19.48c0,6.75-5.49,12.24-12.24,12.24ZM29.58,68.33v89.28c0,4.55,3.7,8.24,8.24,8.24H166.31c4.55,0,8.24-3.7,8.24-8.24v-15.48h-27.74c-10.32,0-18.72-8.41-18.72-18.74v-3.78c0-10.32,8.4-18.72,18.72-18.72h27.74v-21.12c0-4.55-3.7-8.24-8.24-8.24H37.82c-3.17,0-6.07-1.21-8.24-3.2Z"
         id="path4" />
    </g>
    <g
       id="g6">
      <path
         class="cls-4"
         d="M185.03,102.9v37.24h-38.21c-9.23,0-16.72-7.5-16.72-16.74v-3.78c0-9.24,7.5-16.72,16.72-16.72h38.21Z"
         id="path5" />
      <path
         class="cls-3"
         d="M185.03,142.14h-38.21c-10.32,0-18.72-8.41-18.72-18.74v-3.78c0-10.32,8.4-18.72,18.72-18.72h38.21c1.1,0,2,.9,2,2v37.24c0,1.1-.9,2-2,2Zm-38.21-37.24c-8.12,0-14.72,6.61-14.72,14.72v3.78c0,8.13,6.61,14.74,14.72,14.74h36.21v-33.24h-36.21Z"
         id="path6" />
    </g>
    <path
       class="cls-3"
       d="M148.1,129.51c-4.41,0-8-3.59-8-8.01s3.59-8,8-8,8,3.59,8,8-3.59,8.01-8,8.01Zm0-12.01c-2.21,0-4,1.8-4,4s1.8,4.01,4,4.01,4-1.8,4-4.01-1.8-4-4-4Z"
       id="path7" />
  </g>
  <g
     id="g8">
    <circle
       class="cls-2"
       cx="38.37"
       cy="149.6"
       r="23.04"
       id="circle7" />
    <path
       class="cls-1"
       d="M38.37,174.63c-13.8,0-25.04-11.23-25.04-25.04s11.23-25.04,25.04-25.04,25.04,11.23,25.04,25.04-11.23,25.04-25.04,25.04Zm0-46.07c-11.6,0-21.04,9.44-21.04,21.04s9.44,21.04,21.04,21.04,21.04-9.44,21.04-21.04-9.44-21.04-21.04-21.04Z"
       id="path8" />
  </g>
  <path
     class="cls-1"
     d="M49.23,152.02h-8.68v8.44c0,1.34-1.08,2.42-2.42,2.42h0c-1.34,0-2.42-1.08-2.42-2.42v-8.44h-8.19c-1.34,0-2.42-1.08-2.42-2.42h0c0-1.34,1.08-2.42,2.42-2.42h8.19s0-8.44,0-8.44c0-1.34,1.08-2.42,2.42-2.42h0c1.34,0,2.42,1.08,2.42,2.42v8.44h8.68c1.34,0,2.42,1.08,2.42,2.42h0c0,1.34-1.08,2.42-2.42,2.42Z"
     id="path9" />
  <path
     class="cls-3"
     d="M84.48,42.6c-1.1,0-2-.9-2-2v-14.77c0-1.1,.9-2,2-2s2,.9,2,2v14.77c0,1.1-.9,2-2,2Z"
     id="path10" />
  <path
     class="cls-3"
     d="M96.37,41.43c-.51,0-1.02-.2-1.41-.59-.78-.78-.78-2.05,0-2.83l8.09-8.09c.78-.78,2.05-.78,2.83,0s.78,2.05,0,2.83l-8.09,8.09c-.39,.39-.9,.59-1.41,.59Z"
     id="path11" />
  <path
     class="cls-3"
     d="M72.6,41.43c-.51,0-1.02-.2-1.41-.59l-8.09-8.09c-.78-.78-.78-2.05,0-2.83s2.05-.78,2.83,0l8.09,8.09c.78,.78,.78,2.05,0,2.83-.39,.39-.9,.59-1.41,.59Z"
     id="path12" />
  <path
     style="fill:#666666;stroke-width:0.245098"
     d="m 58.708819,164.39951 c 1.320683,-1.73285 3.279659,-5.77148 3.893554,-8.02696 1.642277,-6.03384 0.99896,-12.52932 -1.790902,-18.08251 -2.914366,-5.801 -8.167422,-10.40693 -14.215857,-12.46458 -4.880818,-1.66043 -11.477611,-1.75038 -15.827051,-0.21581 l -0.989151,0.349 V 97.415598 c 0,-15.698677 0.0561,-28.543049 0.124671,-28.543049 0.06857,0 0.576493,0.327298 1.12872,0.727329 0.552227,0.400031 1.62664,0.979075 2.387584,1.286765 l 1.383535,0.559435 66.666668,0.122549 66.66666,0.122549 1.20597,0.556157 c 1.83941,0.848282 3.15193,2.06235 4.07982,3.773787 l 0.84167,1.552409 0.0704,11.580883 0.0704,11.580878 -14.53115,0.009 c -15.75521,0.009 -16.73101,0.0752 -19.92875,1.34633 -5.75593,2.28804 -9.85727,6.9561 -11.38772,12.96128 -0.71016,2.78651 -0.71027,9.89031 -2.1e-4,12.85223 1.42092,5.92714 5.68403,10.76907 11.52814,13.09335 2.787,1.10842 3.64652,1.15982 19.39554,1.15982 h 14.90596 v 8.44669 c 0,8.0583 -0.0244,8.51183 -0.53005,9.86339 -0.72401,1.93508 -2.7542,3.96527 -4.68928,4.68928 l -1.4167,0.53005 H 112.73967 57.728115 Z"
     id="path13" />
  <path
     style="fill:#666666;stroke-width:0.245098"
     d="M 35.539216,67.060708 C 35,66.891054 34.294748,66.610299 33.971988,66.436809 c -1.107074,-0.595079 -2.76623,-2.3247 -3.414314,-3.559322 -0.567878,-1.081827 -0.648907,-1.524664 -0.652084,-3.563762 -0.003,-1.953152 0.08916,-2.516856 0.572065,-3.49752 0.735628,-1.493874 2.376852,-3.135098 3.882925,-3.882925 l 1.178636,-0.585241 50.781252,-0.06356 c 50.612862,-0.06336 50.785692,-0.06191 52.119382,0.437095 1.87973,0.703295 3.41393,2.140968 4.38202,4.106313 l 0.80558,1.635411 0.0831,4.969334 0.0831,4.969334 -53.636982,-0.0164 C 47.773022,67.372609 36.313915,67.304451 35.539216,67.060708 Z"
     id="path14" />
  <path
     style="fill:#666666;stroke-width:0.245098"
     d="m 143.45138,137.60957 c -5.33027,-1.29223 -9.97346,-6.16302 -10.95346,-11.49037 -0.45848,-2.49235 -0.33995,-7.86545 0.22197,-10.06254 1.28198,-5.0125 5.28349,-9.07003 10.43996,-10.58612 1.30895,-0.38486 3.28967,-0.43379 20.62691,-0.50955 l 19.17893,-0.0838 v 16.55651 16.55651 l -19.05638,-0.0204 c -15.35281,-0.0164 -19.32876,-0.0865 -20.45793,-0.36021 z m 8.2565,-8.91097 c 2.88314,-1.41936 4.40815,-3.93171 4.40233,-7.25252 -0.004,-2.35134 -0.5246,-3.69145 -2.09569,-5.39588 -1.54483,-1.67594 -3.09353,-2.38544 -5.48511,-2.51286 -1.60975,-0.0858 -2.2227,-0.006 -3.42377,0.44718 -1.97924,0.74631 -3.78167,2.54874 -4.52798,4.52798 -0.75553,2.00368 -0.63221,4.81927 0.28994,6.61989 0.67165,1.31148 2.3304,3.00094 3.5817,3.64802 2.14128,1.10729 4.90647,1.07613 7.25858,-0.0818 z"
     id="path15" />
  <path
     style="fill:#666666;stroke-width:0.245098"
     d="m 147.16019,125.25848 c -1.88175,-0.57777 -3.05944,-2.283 -2.85141,-4.12868 0.4852,-4.3046 6.34052,-4.68714 7.54343,-0.49282 0.72839,2.53973 -2.17101,5.39554 -4.69202,4.6215 z"
     id="path16" />
  <path
     style="fill:#4d4d4d;stroke-width:0.245098"
     d="m 55.517029,167.95343 2.044621,-1.89951 55.5329,-0.12255 55.5329,-0.12255 1.27772,-0.67356 c 1.8478,-0.97409 2.82307,-1.92322 3.76932,-3.66829 l 0.83531,-1.5405 0.0725,-8.84635 0.0725,-8.84634 -15.17292,-0.17533 c -11.58093,-0.13382 -15.57273,-0.25769 -16.86175,-0.52325 -2.12587,-0.43797 -5.65506,-2.17303 -7.56524,-3.7193 -2.87273,-2.32544 -5.34265,-6.1621 -6.23292,-9.6819 -1.00713,-3.98183 -0.85618,-10.56792 0.32776,-14.30105 0.90446,-2.85189 2.16654,-4.83802 4.67855,-7.36262 1.87618,-1.88559 2.57828,-2.4067 4.53872,-3.36866 4.20926,-2.06542 3.27892,-1.97304 20.77182,-2.06253 l 15.51144,-0.0794 -0.0703,-11.693131 c -0.0686,-11.420948 -0.0827,-11.720041 -0.60439,-12.849313 -0.7966,-1.724302 -2.53666,-3.446246 -4.3104,-4.265503 l -1.52802,-0.705765 -66.54411,-0.122549 C 40.470026,71.210964 34.967211,71.168 34.044793,70.796141 32.411072,70.137529 31.12079,69.428612 30.302336,68.739927 L 29.534314,68.09368 v 28.935933 28.935937 l -1.872753,0.86526 c -1.030014,0.4759 -1.914896,0.86527 -1.966404,0.86527 -0.05151,0 -0.06355,-15.85478 -0.02676,-35.232845 l 0.06689,-35.232843 0.525628,-1.531406 c 1.28995,-3.758249 4.370097,-6.797853 8.175353,-8.067745 1.287116,-0.429537 3.591112,-0.453097 50.980392,-0.521306 33.70759,-0.04852 50.26147,0.01127 51.59313,0.18632 4.87955,0.641445 8.91351,4.108945 10.20701,8.773728 0.37406,1.348958 0.45476,2.521725 0.45476,6.608536 v 4.96854 h 9.77047 c 5.58075,0 10.33659,0.106698 11.09068,0.248822 1.71195,0.322652 4.47775,1.658099 5.77569,2.788761 1.4248,1.241162 2.92416,3.578561 3.50795,5.468642 0.46382,1.501701 0.49246,2.269008 0.49246,13.193515 v 11.599081 l 3.82123,0.0785 c 3.67455,0.0755 3.83919,0.10074 4.28921,0.65715 0.45168,0.55845 0.46799,1.24743 0.46799,19.75862 0,18.97183 -0.005,19.18693 -0.50301,19.81947 -0.49794,0.63303 -0.54062,0.64017 -4.22794,0.70708 l -3.72493,0.0676 -0.12255,9.33303 -0.12255,9.33302 -1.02912,2.07604 c -1.93017,3.8937 -5.39137,6.34572 -9.64825,6.83511 -1.27665,0.14677 -23.48618,0.23842 -58.05211,0.23957 l -55.98438,0.002 z m 127.634181,-46.4313 -0.063,-16.71317 -19.33093,0.0676 c -21.04061,0.0736 -20.61188,0.0464 -23.56123,1.4922 -3.8241,1.8746 -6.62582,5.40467 -7.73663,9.74789 -0.59351,2.32062 -0.65028,7.87756 -0.10701,10.47651 0.56416,2.69894 1.90422,5.09747 4.04098,7.23283 2.0924,2.09103 4.01168,3.21707 6.67072,3.9137 1.68565,0.44161 2.89489,0.46941 20.96942,0.48213 l 19.18063,0.0135 z M 143.95384,62.561275 c -0.0827,-4.999976 -0.096,-5.111566 -0.78846,-6.613802 -0.81763,-1.773735 -2.53834,-3.513127 -4.2641,-4.310396 L 137.7451,51.102941 H 86.642157 35.539216 l -1.142733,0.562935 c -1.731787,0.853117 -3.283229,2.353626 -4.051838,3.91882 -0.599404,1.220626 -0.687623,1.684047 -0.686544,3.60648 9.77e-4,1.739403 0.112978,2.448228 0.52963,3.35188 0.600824,1.303094 2.214008,3.151277 3.37909,3.871337 2.029599,1.254361 -0.552958,1.199201 56.957049,1.216536 l 53.51406,0.01613 z"
     id="path17" />
  <path
     style="fill:#4d4d4d;stroke-width:0.245098"
     d="m 95.785077,41.155987 c -0.813628,-0.300981 -1.384565,-1.323067 -1.185538,-2.122339 0.103954,-0.417467 1.730482,-2.252513 4.25496,-4.800439 3.934501,-3.971042 4.957731,-4.821444 5.801331,-4.821444 0.6863,0 1.59417,1.1364 1.59417,1.995463 0,0.698748 -0.51139,1.306517 -4.33285,5.149435 -2.383073,2.39645 -4.6171,4.456268 -4.964509,4.577375 -0.347408,0.121108 -0.872812,0.130985 -1.167564,0.02195 z"
     id="path18" />
  <path
     style="fill:#4d4d4d;stroke-width:0.245098"
     d="m 83.210784,41.911765 c -0.470663,-0.470663 -0.490196,-0.816994 -0.490196,-8.691433 0,-8.121142 0.0052,-8.206117 0.536412,-8.70098 0.730719,-0.680768 1.79868,-0.637914 2.538455,0.10186 l 0.601604,0.601604 v 7.987968 7.987968 l -0.601604,0.601605 c -0.742713,0.742712 -1.90334,0.792739 -2.584671,0.111408 z"
     id="path19" />
  <path
     style="fill:#1a1a1a;stroke-width:0.245098"
     d="m 146.30834,129.19644 c -3.49678,-0.90444 -5.98808,-4.10301 -5.99092,-7.69172 -0.002,-2.30903 0.60493,-3.73074 2.32731,-5.45312 1.72238,-1.72238 3.1441,-2.32915 5.45313,-2.32732 2.99251,0.002 5.4877,1.51627 6.93659,4.20861 0.74933,1.39242 0.83596,1.75448 0.84054,3.51319 0.004,1.65142 -0.10186,2.17894 -0.6728,3.34351 -0.79575,1.62309 -2.45116,3.23731 -4.04119,3.94066 -1.22764,0.54304 -3.65423,0.77617 -4.85266,0.46619 z m 3.98568,-4.24095 c 1.14548,-0.6871 1.84587,-1.96115 1.84587,-3.35776 0,-4.39089 -5.70099,-5.81928 -7.68718,-1.92603 -1.86035,3.64661 2.29874,7.40875 5.84131,5.28379 z"
     id="path20" />
  <path
     style="fill:#1a1a1a;stroke-width:0.245098"
     d="m 55.614875,168.06934 1.938407,-1.81201 38.97237,-0.16298 c 21.434808,-0.0896 46.449208,-0.16298 55.587578,-0.16298 h 16.6152 l 1.29755,-0.75749 c 1.73977,-1.01566 2.76697,-2.02828 3.74963,-3.69642 l 0.81893,-1.39019 0.0802,-8.96534 0.0802,-8.96534 -1.10294,-0.005 c -0.60662,-0.003 -7.52901,-0.11082 -15.3831,-0.24035 -11.29098,-0.18621 -14.61835,-0.31394 -15.89578,-0.6102 -2.09719,-0.48637 -5.9912,-2.49842 -7.64871,-3.95211 -2.58992,-2.27145 -4.90212,-5.97617 -5.79523,-9.28536 -0.54617,-2.0237 -0.75984,-7.77248 -0.39171,-10.53922 0.62533,-4.69985 2.07309,-7.59069 5.52362,-11.02941 1.86145,-1.85507 2.58376,-2.38689 4.54189,-3.34402 1.28064,-0.62597 2.76961,-1.27228 3.30882,-1.43625 0.69637,-0.21175 5.58135,-0.35272 16.86167,-0.4866 8.7347,-0.10367 15.90382,-0.22942 15.93137,-0.27944 0.0276,-0.05 -0.005,-5.440212 -0.0725,-11.978202 l -0.12255,-11.887255 -0.64934,-1.102941 c -0.90695,-1.540495 -2.47077,-3.017394 -4.13316,-3.903443 l -1.41356,-0.75342 -30.60295,-0.02593 c -16.83161,-0.0141 -46.926466,-0.10059 -66.877447,-0.192035 L 34.558824,70.939139 33.224473,70.345387 c -0.733892,-0.326563 -1.810214,-0.956987 -2.391826,-1.400942 -0.581612,-0.443955 -1.11167,-0.80719 -1.177905,-0.80719 -0.06624,0 -0.120428,12.990162 -0.120428,28.867029 v 28.867026 l -1.641834,0.72856 c -0.903009,0.40071 -1.731316,0.76569 -1.840682,0.81108 -0.109367,0.0454 -0.170174,-15.89212 -0.135127,-35.416671 l 0.06372,-35.499181 0.915148,-1.91659 c 1.296715,-2.715703 3.337132,-4.78374 6.042654,-6.124448 l 2.073655,-1.027589 50.840222,-0.06902 c 55.778,-0.07573 52.10767,-0.166129 55.20185,1.359623 2.03187,1.001919 4.23849,3.318154 5.30935,5.573093 0.82137,1.729568 0.90829,2.127369 1.08894,4.983448 0.10798,1.707112 0.2015,4.289502 0.20784,5.738644 l 0.0115,2.634804 5.08578,0.02252 c 2.79718,0.01239 7.633,0.09511 10.74626,0.183823 l 5.66046,0.161301 2.3428,1.163117 c 2.78371,1.382018 4.13214,2.731773 5.50581,5.511211 l 0.91102,1.843321 0.17466,4.319606 c 0.0961,2.375784 0.18272,7.860644 0.19256,12.188578 l 0.0179,7.86897 1.65442,0.15625 c 0.90992,0.0859 2.56433,0.15703 3.67647,0.15799 3.05152,0.003 2.88884,-0.37876 3.08466,7.23156 0.20712,8.04924 0.20711,18.39501 -2e-5,26.18682 -0.13854,5.21127 -0.222,6.16249 -0.57942,6.60388 -0.38308,0.4731 -0.721,0.52429 -4.09313,0.62009 l -3.67557,0.10441 -0.17689,9.46818 -0.1769,9.46817 -0.89847,1.71569 c -1.82578,3.48642 -5.23781,6.10534 -8.74162,6.70968 -0.96708,0.1668 -20.85562,0.30423 -58.08823,0.40138 l -56.61765,0.14773 z M 183.21078,121.40681 v -16.82848 l -18.79526,0.17357 c -10.33739,0.0955 -19.62075,0.27823 -20.62969,0.40615 -5.2181,0.66159 -10.08985,5.36247 -11.41893,11.01842 -0.50961,2.16872 -0.51076,8.61248 -0.002,10.77135 1.25164,5.31027 6.02199,9.98511 11.26246,11.03698 0.53922,0.10823 9.66605,0.20887 20.28186,0.22364 l 19.30147,0.0268 z M 144.06393,62.928922 c -0.12219,-5.405915 -0.38458,-6.704482 -1.70392,-8.432914 -1.0909,-1.42916 -1.56647,-1.850392 -3.14432,-2.785069 l -1.22549,-0.725947 -51.318207,-0.0023 -51.318205,-0.0023 -1.29951,0.743504 c -1.771362,1.013471 -3.64137,3.110335 -4.156231,4.660436 -0.584426,1.759543 -0.429187,4.864339 0.319539,6.390827 0.665989,1.357803 2.591634,3.425512 3.750388,4.02707 0.483626,0.251071 1.713995,0.505339 2.919281,0.6033 1.145833,0.09313 25.753331,0.18557 54.683328,0.205427 l 52.599997,0.0361 z"
     id="path21" />
  <path
     style="fill:#1a1a1a;stroke-width:0.245098"
     d="m 72.057553,41.165485 c -0.734069,-0.283387 -9.435004,-9.148131 -9.435004,-9.612634 0,-1.221497 1.340453,-2.371005 2.380079,-2.041041 0.250487,0.0795 2.4645,2.164304 4.920029,4.632894 4.639003,4.663678 4.891919,5.040046 4.224674,6.286805 -0.307164,0.57394 -1.457639,0.978012 -2.089778,0.733976 z"
     id="path22" />
  <path
     style="fill:#1a1a1a;stroke-width:0.245098"
     d="m 83.222946,41.689391 c -0.711754,-1.329925 -0.576527,-16.33511 0.153794,-17.065431 0.513041,-0.513041 1.621477,-0.443613 2.37452,0.148731 l 0.645799,0.507986 v 7.930107 7.930108 l -0.645799,0.507985 c -0.83271,0.655011 -2.187824,0.676725 -2.528314,0.04051 z"
     id="path23" />
  <path
     style="fill:#1a1a1a;stroke-width:0.245098"
     d="m 95.376191,40.668485 c -0.443428,-0.3488 -0.645799,-0.740357 -0.645799,-1.249521 0,-0.633089 0.636248,-1.381593 4.35049,-5.118067 2.392768,-2.407092 4.626228,-4.478833 4.963238,-4.603869 0.80884,-0.300096 1.42561,0.04169 1.83585,1.017361 0.23543,0.559928 0.25473,0.910283 0.0698,1.267466 -0.34533,0.667075 -6.633664,7.053474 -8.116417,8.242987 -1.366798,1.09649 -1.578614,1.134733 -2.457192,0.443643 z"
     id="path24" />
</svg>
