<?xml version="1.0" encoding="UTF-8" standalone="no"?>
<svg
   id="Group_2461"
   data-name="Group 2461"
   width="200"
   height="200"
   viewBox="0 0 200 200"
   version="1.1"
   sodipodi:docname="secure-image.svg"
   inkscape:version="1.3.2 (1:1.3.2+202311252150+091e20ef0f)"
   xmlns:inkscape="http://www.inkscape.org/namespaces/inkscape"
   xmlns:sodipodi="http://sodipodi.sourceforge.net/DTD/sodipodi-0.dtd"
   xmlns="http://www.w3.org/2000/svg"
   xmlns:svg="http://www.w3.org/2000/svg">
  <sodipodi:namedview
     id="namedview1"
     pagecolor="#ffffff"
     bordercolor="#000000"
     borderopacity="0.25"
     inkscape:showpageshadow="2"
     inkscape:pageopacity="0.0"
     inkscape:pagecheckerboard="0"
     inkscape:deskcolor="#d1d1d1"
     showgrid="false"
     inkscape:zoom="4.08"
     inkscape:cx="99.877451"
     inkscape:cy="100"
     inkscape:window-width="1850"
     inkscape:window-height="1016"
     inkscape:window-x="0"
     inkscape:window-y="0"
     inkscape:window-maximized="1"
     inkscape:current-layer="Group_2461" />
  <defs
     id="defs1">
    <clipPath
       id="clip-path">
      <rect
         id="Rectangle_1807"
         data-name="Rectangle 1807"
         width="200"
         height="200"
         fill="none" />
    </clipPath>
  </defs>
  <g
     id="Group_2460"
     data-name="Group 2460"
     clip-path="url(#clip-path)">
    <path
       id="Path_708"
       data-name="Path 708"
       d="M175.908,70.565A60.718,60.718,0,1,1,115.19,9.847a60.718,60.718,0,0,1,60.718,60.718"
       fill="#8099b3"
       style="fill:#949494" />
    <path
       id="Path_709"
       data-name="Path 709"
       d="M168.3,138.753l-32.439,32.429a18.8,18.8,0,0,1-13.292,5.508H64.834L48.667,192.858s-11.635.459-22.585-10.482S15.6,159.792,15.6,159.792l24.963-24.964a12.189,12.189,0,0,1,8.618-3.569H79.541A13.948,13.948,0,0,1,93.5,145.207h21.966a10.576,10.576,0,0,1,10.575,10.575v1.6a3.551,3.551,0,0,1-.581,1.949l31.708-31.718A7.876,7.876,0,0,1,168.3,138.753"
       fill="#8099b3"
       style="fill:#949494" />
    <path
       id="Path_710"
       data-name="Path 710"
       d="M125.43,159.361v-.009l.009-.01.019-.009"
       fill="#8099b3"
       style="fill:#949494" />
    <line
       id="Line_124"
       data-name="Line 124"
       x1="0.013"
       y2="0.013"
       transform="translate(125.431 159.342)"
       fill="#8099b3"
       style="fill:#949494" />
    <path
       id="Path_711"
       data-name="Path 711"
       d="M48.665,192.86l16.172-16.172h57.741a18.8,18.8,0,0,0,13.289-5.5L168.3,138.75a7.871,7.871,0,0,0-11.131-11.131l-31.739,31.739"
       fill="none"
       stroke="#036"
       stroke-linecap="round"
       stroke-linejoin="round"
       stroke-width="4"
       style="stroke:#2a2a2a" />
    <path
       id="Path_712"
       data-name="Path 712"
       d="M46.455,172.14a39.166,39.166,0,0,0,18.382,4.548"
       fill="none"
       stroke="#036"
       stroke-linecap="round"
       stroke-linejoin="round"
       stroke-width="4"
       style="stroke:#2a2a2a" />
    <path
       id="Path_713"
       data-name="Path 713"
       d="M93.494,145.206h21.965a10.576,10.576,0,0,1,10.576,10.575v1.6a3.563,3.563,0,0,1-3.563,3.562H81.921"
       fill="none"
       stroke="#036"
       stroke-linecap="round"
       stroke-linejoin="round"
       stroke-width="4"
       style="stroke:#2a2a2a" />
    <path
       id="Path_714"
       data-name="Path 714"
       d="M79.545,131.257a13.949,13.949,0,0,1,13.949,13.949"
       fill="none"
       stroke="#036"
       stroke-linecap="round"
       stroke-linejoin="round"
       stroke-width="4"
       style="stroke:#2a2a2a" />
    <path
       id="Path_715"
       data-name="Path 715"
       d="M79.545,131.257H49.178a12.179,12.179,0,0,0-8.612,3.567L15.6,159.793"
       fill="none"
       stroke="#036"
       stroke-linecap="round"
       stroke-linejoin="round"
       stroke-width="4"
       style="stroke:#2a2a2a" />
    <line
       id="Line_125"
       data-name="Line 125"
       x1="0.013"
       y2="0.013"
       transform="translate(125.431 159.342)"
       fill="#8099b3"
       style="fill:#949494" />
    <path
       id="Path_716"
       data-name="Path 716"
       d="M158.845,93.491H126.417a4.079,4.079,0,0,1-4.079-4.079V70.947a4.079,4.079,0,0,1,4.079-4.079h32.428a4.079,4.079,0,0,1,4.079,4.079V89.412a4.079,4.079,0,0,1-4.079,4.079"
       fill="#f9f1c6"
       style="fill:#eeeeee" />
    <rect
       id="Rectangle_1803"
       data-name="Rectangle 1803"
       width="40.586"
       height="26.623"
       rx="4.079"
       transform="translate(122.338 66.868)"
       fill="none"
       stroke="#fcba19"
       stroke-linejoin="round"
       stroke-width="4"
       style="stroke:#bbbbbb" />
    <line
       id="Line_126"
       data-name="Line 126"
       x2="12.431"
       transform="translate(144.621 73.989)"
       fill="none"
       stroke="#fcba19"
       stroke-linecap="round"
       stroke-linejoin="round"
       stroke-width="4"
       style="stroke:#bbbbbb" />
    <line
       id="Line_127"
       data-name="Line 127"
       x2="12.431"
       transform="translate(144.621 80.18)"
       fill="none"
       stroke="#fcba19"
       stroke-linecap="round"
       stroke-linejoin="round"
       stroke-width="4"
       style="stroke:#bbbbbb" />
    <line
       id="Line_128"
       data-name="Line 128"
       x2="12.431"
       transform="translate(144.621 86.37)"
       fill="none"
       stroke="#fcba19"
       stroke-linecap="round"
       stroke-linejoin="round"
       stroke-width="4"
       style="stroke:#bbbbbb" />
    <path
       id="Path_717"
       data-name="Path 717"
       d="M133.453,73.473A3.056,3.056,0,1,1,130.4,76.53a3.057,3.057,0,0,1,3.057-3.057"
       fill="#fcba19"
       style="fill:#bbbbbb" />
    <path
       id="Path_718"
       data-name="Path 718"
       d="M133.454,80.714h0a4.775,4.775,0,0,1,4.775,4.776V85.6a.689.689,0,0,1-.689.69h-8.173a.689.689,0,0,1-.689-.69V85.49a4.776,4.776,0,0,1,4.776-4.776"
       fill="#fcba19"
       style="fill:#bbbbbb" />
    <path
       id="Path_719"
       data-name="Path 719"
       d="M110.516,108.552H80.708a3.263,3.263,0,0,1-3.263-3.263V70.725a3.263,3.263,0,0,1,3.263-3.263h29.808a3.263,3.263,0,0,1,3.263,3.263v34.564a3.263,3.263,0,0,1-3.263,3.263"
       fill="#f9f1c6"
       style="fill:#eeeeee" />
    <rect
       id="Rectangle_1804"
       data-name="Rectangle 1804"
       width="36.334"
       height="41.09"
       rx="3.263"
       transform="translate(77.445 67.462)"
       fill="none"
       stroke="#fcba19"
       stroke-linecap="round"
       stroke-linejoin="round"
       stroke-width="4"
       style="stroke:#bbbbbb" />
    <path
       id="Path_720"
       data-name="Path 720"
       d="M113.684,100.758a7.184,7.184,0,1,1-7.916-6.369,7.184,7.184,0,0,1,7.916,6.369"
       fill="#f9f1c6"
       style="fill:#eeeeee" />
    <path
       id="Path_721"
       data-name="Path 721"
       d="M113.684,100.758a7.184,7.184,0,1,1-7.916-6.369A7.184,7.184,0,0,1,113.684,100.758Z"
       fill="none"
       stroke="#fcba19"
       stroke-linecap="round"
       stroke-linejoin="round"
       stroke-width="4"
       style="stroke:#bbbbbb" />
    <path
       id="Path_722"
       data-name="Path 722"
       d="M100.635,105.623l-3.585,9.71a.568.568,0,0,0,.8.7l3.026-1.627,1.243,3.2a.568.568,0,0,0,1.062-.008l3.281-8.887a7.185,7.185,0,0,1-5.829-3.088"
       fill="#fcba19"
       style="fill:#bbbbbb" />
    <path
       id="Path_723"
       data-name="Path 723"
       d="M112.5,105.546a7.164,7.164,0,0,1-5.18,3.128c-.208.022-.415.031-.621.035l3.281,8.888a.568.568,0,0,0,1.062.009l1.243-3.2,3.027,1.627a.568.568,0,0,0,.8-.7Z"
       fill="#fcba19"
       style="fill:#bbbbbb" />
    <line
       id="Line_129"
       data-name="Line 129"
       x2="22.634"
       transform="translate(84.295 75.37)"
       fill="#f9f1c6"
       style="fill:#eeeeee" />
    <line
       id="Line_130"
       data-name="Line 130"
       x2="22.634"
       transform="translate(84.295 75.37)"
       fill="none"
       stroke="#fcba19"
       stroke-linecap="round"
       stroke-linejoin="round"
       stroke-width="4"
       style="stroke:#bbbbbb" />
    <line
       id="Line_131"
       data-name="Line 131"
       x2="22.634"
       transform="translate(84.295 83.454)"
       fill="#f9f1c6"
       style="fill:#eeeeee" />
    <line
       id="Line_132"
       data-name="Line 132"
       x2="22.634"
       transform="translate(84.295 83.454)"
       fill="none"
       stroke="#fcba19"
       stroke-linecap="round"
       stroke-linejoin="round"
       stroke-width="4"
       style="stroke:#bbbbbb" />
    <line
       id="Line_133"
       data-name="Line 133"
       x2="8.901"
       transform="translate(84.295 91.538)"
       fill="#f9f1c6"
       style="fill:#eeeeee" />
    <line
       id="Line_134"
       data-name="Line 134"
       x2="8.901"
       transform="translate(84.295 91.538)"
       fill="none"
       stroke="#fcba19"
       stroke-linecap="round"
       stroke-linejoin="round"
       stroke-width="4"
       style="stroke:#bbbbbb" />
    <line
       id="Line_135"
       data-name="Line 135"
       x2="8.139"
       transform="translate(84.295 99.623)"
       fill="#f9f1c6"
       style="fill:#eeeeee" />
    <line
       id="Line_136"
       data-name="Line 136"
       x2="8.139"
       transform="translate(84.295 99.623)"
       fill="none"
       stroke="#fcba19"
       stroke-linecap="round"
       stroke-linejoin="round"
       stroke-width="4"
       style="stroke:#bbbbbb" />
    <path
       id="Path_724"
       data-name="Path 724"
       d="M126.968,58.195H91.363a2.934,2.934,0,0,1-2.933-2.934V33.341a2.933,2.933,0,0,1,2.934-2.934h35.6a2.934,2.934,0,0,1,2.934,2.934v21.92a2.934,2.934,0,0,1-2.934,2.934"
       fill="#f9f1c6"
       style="fill:#eeeeee" />
    <path
       id="Rectangle_1805"
       data-name="Rectangle 1805"
       d="M2.934,0H38.539a2.933,2.933,0,0,1,2.933,2.933V24.854a2.934,2.934,0,0,1-2.934,2.934H2.934A2.934,2.934,0,0,1,0,24.854V2.934A2.934,2.934,0,0,1,2.934,0Z"
       transform="translate(88.43 30.407)"
       fill="none"
       stroke="#fcba19"
       stroke-linejoin="round"
       stroke-width="4"
       style="stroke:#bbbbbb" />
    <line
       id="Line_137"
       data-name="Line 137"
       x2="19.958"
       transform="translate(93.303 47.638)"
       fill="none"
       stroke="#fcba19"
       stroke-linecap="round"
       stroke-linejoin="round"
       stroke-width="4"
       style="stroke:#bbbbbb" />
    <rect
       id="Rectangle_1806"
       data-name="Rectangle 1806"
       width="41.472"
       height="4.565"
       transform="translate(88.43 37.667)"
       fill="#fcba19"
       style="fill:#bbbbbb" />
    <path
       id="Path_725"
       data-name="Path 725"
       d="M175.908,70.565A60.718,60.718,0,1,1,115.19,9.847,60.718,60.718,0,0,1,175.908,70.565Z"
       fill="none"
       stroke="#036"
       stroke-linecap="round"
       stroke-linejoin="round"
       stroke-width="4"
       style="stroke:#2a2a2a" />
    <path
       id="Path_726"
       data-name="Path 726"
       d="M55.3,85.111c-2.406-.421-14.417-3.723-14.64-27.4l-.008-.954.734-.607A22.868,22.868,0,0,1,55.647,51.26,22.554,22.554,0,0,1,69.9,56.145l.735.608-.009.953c-.223,23.7-12.236,26.988-14.642,27.4l-.343.06Z"
       fill="#8099b3"
       style="fill:#949494" />
    <path
       id="Path_727"
       data-name="Path 727"
       d="M55.646,53.261A20.7,20.7,0,0,1,68.63,57.688c-.21,22.463-11.438,25.185-12.984,25.453-1.575-.275-12.774-3.012-12.984-25.453a20.7,20.7,0,0,1,12.984-4.427m0-4A24.562,24.562,0,0,0,40.114,54.6l-1.47,1.214.018,1.907C38.9,82.992,52.277,86.612,54.956,87.081l.687.121.688-.12c2.68-.465,16.062-4.069,16.3-29.356l.018-1.908L71.177,54.6a24.589,24.589,0,0,0-15.531-5.342"
       fill="#036"
       style="fill:#2a2a2a" />
    <path
       id="Path_728"
       data-name="Path 728"
       d="M61.4,64H49.888a1.462,1.462,0,0,0-1.5,1.422v7.759a1.461,1.461,0,0,0,1.5,1.422H61.4a1.461,1.461,0,0,0,1.5-1.422V65.424A1.461,1.461,0,0,0,61.4,64m-4.942,6.181v1.922a.326.326,0,0,1-.327.327h-.976a.326.326,0,0,1-.327-.327V70.183a2.086,2.086,0,1,1,1.63,0"
       fill="#036"
       style="fill:#2a2a2a" />
    <path
       id="Path_729"
       data-name="Path 729"
       d="M60,64.915H57.553V62.508a1.889,1.889,0,0,0-3.778,0v2.407H51.328V62.508a4.336,4.336,0,0,1,8.672,0Z"
       fill="#036"
       style="fill:#2a2a2a" />
  </g>
  <path
     style="fill:#ffff00;stroke-width:0.245098"
     d="m 101.69862,116.17647 c -0.37022,-0.94363 -0.76914,-1.71569 -0.88649,-1.71569 -0.11735,0 -0.868838,0.33089 -1.669973,0.7353 -2.329818,1.17609 -2.365963,1.1038 -1.102941,-2.20588 0.471813,-1.23637 0.857843,-2.28773 0.857843,-2.33636 0,-0.0486 -4.329044,-0.1219 -9.620098,-0.1628 l -9.620098,-0.0744 -1.223861,-0.61275 c -0.77545,-0.38824 -1.493861,-1.00214 -1.960784,-1.67552 l -0.736924,-1.06278 V 88.030357 68.995098 l 0.67073,-0.980392 c 0.368901,-0.539216 1.077663,-1.256128 1.575027,-1.593137 l 0.904298,-0.612745 16.317129,-0.06864 c 17.868152,-0.07517 17.563152,-0.09704 18.958522,1.359758 1.44504,1.50866 1.39849,0.817476 1.40586,20.874084 0.007,19.859774 0.0368,19.379974 -1.27745,20.778924 l -0.51562,0.54886 1.14026,3.1185 c 0.76591,2.09467 1.05919,3.19958 0.89331,3.36546 -0.16588,0.16588 -0.79976,-0.0516 -1.93075,-0.66249 l -1.68379,-0.90946 -0.55724,1.5328 c -0.5516,1.51728 -1.08599,2.36016 -1.33714,2.10901 -0.0714,-0.0714 -0.71991,-1.71928 -1.44104,-3.66188 l -1.31115,-3.53199 h -0.9545 -0.9545 l -1.12375,2.99999 c -1.3898,3.71024 -1.62502,4.23041 -1.91306,4.23041 -0.12578,0 -0.5316,-0.77206 -0.90182,-1.71569 z m 7.1637,-9.88316 c 1.85391,-0.95869 2.88216,-2.6362 2.88104,-4.70017 -0.002,-3.346665 -2.34446,-5.467655 -5.7657,-5.220184 -5.41605,0.391762 -6.425646,8.165424 -1.3135,10.113614 1.14388,0.43593 3.16102,0.34307 4.19816,-0.19326 z m -9.965261,0.23141 c 0,-0.0511 -0.300202,-0.74045 -0.667116,-1.53187 -0.556264,-1.19983 -0.665018,-1.76474 -0.654492,-3.39971 0.01642,-2.551258 0.690505,-4.317559 2.333988,-6.115792 2.802731,-3.066632 7.075041,-3.835868 10.805431,-1.945534 l 1.17238,0.59409 V 82.192546 c 0,-10.760165 -0.0399,-11.977425 -0.40563,-12.38158 -0.38483,-0.425235 -1.20113,-0.448221 -15.917474,-0.448221 h -15.51184 l -0.381545,0.544732 c -0.336698,0.480704 -0.381545,2.606155 -0.381545,18.082719 0,15.476564 0.04485,17.602014 0.381545,18.082714 l 0.381545,0.54474 h 9.422376 c 5.182307,0 9.422377,-0.0418 9.422377,-0.0929 z"
     id="path1" />
  <path
     style="fill:#ffff00;stroke-width:0.245098"
     d="m 124.38725,95.022706 c -1.20299,-0.379179 -3.25462,-2.503632 -3.6235,-3.752123 -0.21363,-0.723061 -0.29654,-3.916758 -0.29268,-11.274509 0.005,-9.797181 0.0282,-10.316017 0.50464,-11.368623 0.61556,-1.359857 1.51537,-2.332351 2.7988,-3.024898 0.97445,-0.525819 1.0855,-0.529433 18.33258,-0.596648 11.27324,-0.04393 17.67838,0.02021 18.2833,0.183099 1.36265,0.366921 2.83806,1.537716 3.62509,2.876642 l 0.6904,1.17455 v 10.906863 c 0,10.791588 -0.006,10.917593 -0.54301,11.922193 -0.68681,1.284189 -2.23703,2.621106 -3.46641,2.989434 -1.30086,0.389748 -35.06467,0.356289 -36.30921,-0.03598 z m 35.54238,-3.725324 c 1.17388,-0.607034 1.25142,-1.384321 1.17194,-11.748968 l -0.0722,-9.41147 -0.59419,-0.632198 -0.5942,-0.632197 h -17.13025 c -10.70519,0 -17.2984,0.08999 -17.57855,0.239924 -0.90154,0.482487 -0.99033,1.500832 -0.98138,11.254984 0.009,10.116389 0.0282,10.283455 1.24379,10.957173 0.46961,0.260289 3.88082,0.32639 17.20333,0.33335 14.33627,0.0075 16.71559,-0.04201 17.33167,-0.360598 z"
     id="path2" />
  <path
     style="fill:#ffff00;stroke-width:0.245098"
     d="M 89.460784,59.584348 C 88.319671,59.056029 87.27347,58.011547 86.902848,57.030613 86.731469,56.577022 86.642157,52.18625 86.642157,44.214476 c 0,-11.415469 0.0272,-12.179457 0.464115,-13.035515 0.532909,-1.044141 1.024271,-1.521106 2.231963,-2.166562 0.816896,-0.436593 1.765455,-0.458477 19.872165,-0.458477 h 19.01432 l 1.18724,0.735294 c 0.77975,0.482922 1.38305,1.106052 1.75774,1.81551 l 0.5705,1.080217 v 11.979126 c 0,10.257826 -0.0545,12.109583 -0.37935,12.887027 -0.50605,1.211142 -1.25277,1.987066 -2.43928,2.534679 -0.9261,0.427421 -2.01879,0.45248 -19.73039,0.45248 -17.734,0 -18.803128,-0.0246 -19.730396,-0.453907 z m 38.217786,-3.596953 c 0.33142,-0.331417 0.38516,-1.323106 0.38516,-7.107843 V 42.156863 H 109.19118 90.318627 v 6.850566 c 0,6.265779 0.03661,6.871892 0.428922,7.10039 0.28049,0.16337 6.678181,0.252404 18.487391,0.257277 16.09646,0.0066 18.10032,-0.03439 18.44363,-0.377701 z m 0.38516,-20.644258 c 0,-1.541394 -0.10538,-2.507336 -0.29412,-2.696078 -0.42572,-0.425712 -36.731153,-0.425712 -37.156865,0 -0.188742,0.188742 -0.294118,1.154684 -0.294118,2.696078 v 2.401961 h 18.872553 18.87255 z"
     id="path3" />
  <path
     style="fill:#ffcc00;stroke-width:0.245098"
     d="m 89.450645,59.343221 c -1.08865,-0.494505 -2.258189,-1.729079 -2.425753,-2.56064 -0.2018,-1.001466 -0.312813,-14.495203 -0.163841,-19.915083 l 0.148753,-5.411914 0.686689,-0.899618 c 1.427136,-1.869662 0.01372,-1.748747 21.354447,-1.826835 l 19.09996,-0.06989 1.17415,0.801233 c 0.71371,0.487029 1.41748,1.248309 1.79465,1.941293 0.61738,1.134336 0.62036,1.169423 0.59245,6.989244 -0.0154,3.217051 -0.0981,8.725736 -0.18382,12.241522 l -0.15578,6.392339 -0.70684,0.926004 c -0.38876,0.509304 -1.16082,1.13217 -1.71569,1.384143 -0.95716,0.434664 -1.96944,0.458137 -19.75884,0.458137 -17.667639,0 -18.807183,-0.02597 -19.740535,-0.449936 z m 38.138995,-3.224393 c 0.45136,-0.241561 0.47409,-0.582223 0.47409,-7.107844 V 42.156863 H 109.19118 90.318627 v 6.813725 c 0,4.972767 0.07947,6.893191 0.294118,7.107843 0.38907,0.389071 36.252185,0.42825 36.976895,0.0404 z m 0.47409,-20.930743 c 0,-2.435273 -0.0263,-2.565536 -0.55148,-2.736039 -0.72037,-0.233857 -35.921783,-0.233857 -36.642152,0 -0.525215,0.170503 -0.551471,0.300766 -0.551471,2.736039 v 2.557013 h 18.872553 18.87255 z"
     id="path4" />
  <path
     style="fill:#ffcc00;stroke-width:0.245098"
     d="m 92.098276,48.958333 c -0.796384,-0.85831 -0.821129,-1.877637 -0.06396,-2.634804 0.475282,-0.475282 0.816993,-0.490196 11.231784,-0.490196 h 10.74159 l 0.53292,0.567268 c 0.75408,0.802686 0.70392,1.958725 -0.11288,2.601218 -0.6307,0.496106 -0.89335,0.507985 -11.23179,0.507985 H 92.609958 Z"
     id="path5" />
  <path
     style="fill:#ffcc00;stroke-width:0.245098"
     d="m 101.80225,116.05392 c -0.41003,-0.87622 -0.89812,-1.59314 -1.08463,-1.59314 -0.18651,0 -0.945092,0.29721 -1.685733,0.66045 -0.740641,0.36324 -1.427722,0.57934 -1.526848,0.48021 -0.09913,-0.0991 0.187917,-1.22752 0.637872,-2.50755 0.449955,-1.28003 0.764496,-2.38093 0.698979,-2.44644 -0.06552,-0.0655 -4.408949,-0.1857 -9.652074,-0.26707 l -9.532953,-0.14795 -1.176626,-0.62761 c -0.647144,-0.34518 -1.501924,-1.06994 -1.89951,-1.61058 l -0.722884,-0.98297 V 87.932898 68.854524 l 1.421339,-1.461576 1.421339,-1.461575 16.286994,0.0058 c 9.069405,0.0033 16.721455,0.1062 17.267385,0.232302 1.48415,0.342814 2.71323,1.780934 2.94169,3.442006 0.24022,1.746658 0.25163,35.052459 0.0126,36.720689 -0.12935,0.90266 -0.40102,1.55103 -0.87709,2.09323 l -0.68969,0.78552 1.08118,3.17638 c 0.59465,1.74701 0.98087,3.21012 0.85828,3.25136 -0.12259,0.0412 -0.89811,-0.26588 -1.72338,-0.68247 -0.82527,-0.41659 -1.59208,-0.70084 -1.70402,-0.63166 -0.11194,0.0692 -0.45276,0.79224 -0.75738,1.60679 -0.30462,0.81455 -0.64513,1.53742 -0.75669,1.60636 -0.27436,0.16956 -0.69101,-0.71564 -1.93859,-4.11861 l -1.05582,-2.8799 h -1.0442 -1.0442 l -0.66595,1.77696 c -1.05136,2.80531 -2.10846,5.33088 -2.23128,5.33088 -0.0619,0 -0.44804,-0.71691 -0.85808,-1.59314 z m 7.02338,-9.64828 c 0.54037,-0.24548 1.33537,-0.84823 1.76665,-1.33944 2.00697,-2.28581 1.52195,-6.30393 -0.95913,-7.945827 -0.91627,-0.606361 -1.2345,-0.674295 -3.15868,-0.674295 -2.02462,0 -2.19043,0.04075 -3.08162,0.757204 -1.43608,1.154522 -2.10609,2.542132 -2.10609,4.361818 0,2.35798 1.19502,4.20287 3.25488,5.02495 0.99675,0.3978 3.21235,0.30243 4.28399,-0.18441 z m -9.928571,0.0474 c 0,-0.0905 -0.289703,-0.88873 -0.643785,-1.7738 -0.562088,-1.405 -0.627351,-1.84896 -0.51429,-3.49849 0.236158,-3.445471 2.008482,-6.120358 5.045276,-7.614601 1.47576,-0.726142 1.81422,-0.795157 3.82906,-0.780772 1.85654,0.01326 2.4406,0.121108 3.65002,0.67402 0.7919,0.362032 1.48124,0.65824 1.53186,0.65824 0.0506,0 0.0921,-5.396534 0.0921,-11.992297 0,-10.575291 -0.0455,-12.037806 -0.38515,-12.377451 -0.34211,-0.34211 -2.13694,-0.385154 -16.059987,-0.385154 H 79.767279 l -0.239032,0.628701 c -0.323161,0.849978 -0.323161,35.147524 0,35.997504 l 0.239032,0.6287 h 9.56489 c 5.260689,0 9.56489,-0.0741 9.56489,-0.1646 z"
     id="path6" />
  <path
     style="fill:#ffcc00;stroke-width:0.245098"
     d="m 83.00841,76.638615 c -0.707904,-0.75353 -0.692709,-1.893249 0.03435,-2.576283 0.566497,-0.532196 0.583582,-0.53292 12.579825,-0.53292 h 12.012555 l 0.53292,0.567267 c 0.67252,0.715869 0.68741,1.87055 0.0332,2.572791 l -0.49975,0.536412 H 95.621412 83.54133 Z"
     id="path7" />
  <path
     style="fill:#ffcc00;stroke-width:0.245098"
     d="m 83.00841,84.72685 c -0.707904,-0.75353 -0.692709,-1.893248 0.03435,-2.576283 0.566541,-0.532237 0.582695,-0.53292 12.613001,-0.53292 h 12.045729 l 0.49975,0.536412 c 0.68064,0.730591 0.64949,1.933537 -0.0675,2.607139 -0.56649,0.532196 -0.58358,0.53292 -12.57982,0.53292 H 83.54133 Z"
     id="path8" />
  <path
     style="fill:#ffcc00;stroke-width:0.245098"
     d="m 83.00841,92.815086 c -0.707904,-0.75353 -0.692709,-1.893249 0.03435,-2.576284 0.545243,-0.512229 0.767069,-0.53292 5.713588,-0.53292 4.840308,0 5.178216,0.02972 5.682732,0.499744 0.729968,0.680069 0.71523,1.942896 -0.03085,2.643807 -0.545269,0.512253 -0.766977,0.53292 -5.71708,0.53292 -5.066134,0 -5.158472,-0.0092 -5.682733,-0.567267 z"
     id="path9" />
  <path
     style="fill:#ffcc00;stroke-width:0.245098"
     d="m 83.121289,100.9626 c -0.844166,-0.66402 -0.880463,-1.882186 -0.07853,-2.635562 0.542412,-0.50957 0.776801,-0.53292 5.349432,-0.53292 4.681837,0 4.793347,0.0119 5.315086,0.567267 0.707904,0.75353 0.69271,1.893245 -0.03435,2.576285 -0.541445,0.50866 -0.779818,0.53292 -5.236555,0.53292 -4.352665,0 -4.713078,-0.0345 -5.315085,-0.50799 z"
     id="path10" />
  <path
     style="fill:#ffcc00;stroke-width:0.245098"
     d="m 124.41811,94.818338 c -1.08529,-0.315323 -3.13041,-2.431637 -3.46884,-3.5896 -0.17867,-0.611324 -0.24136,-4.423629 -0.19096,-11.612335 l 0.075,-10.702225 0.74214,-1.055636 c 0.40818,-0.5806 1.21723,-1.389599 1.7979,-1.797776 l 1.05575,-0.742139 17.9325,-0.06835 17.9325,-0.06835 1.32945,0.803646 c 0.81075,0.49009 1.65198,1.274823 2.15609,2.011276 l 0.82662,1.20763 -0.0727,11.087794 -0.0728,11.087794 -0.74214,1.055573 c -0.40817,0.580566 -1.21725,1.389537 -1.79794,1.797713 l -1.05582,0.74214 -17.80989,0.04156 c -11.03936,0.02576 -18.12427,-0.04978 -18.63688,-0.198713 z m 36.05311,-3.832252 0.55819,-0.55803 0.0716,-10.199484 0.0716,-10.199485 -0.54326,-0.578269 -0.54325,-0.578269 h -17.46428 c -19.50172,0 -18.07673,-0.138163 -18.35746,1.779889 -0.0836,0.571306 -0.11775,5.240692 -0.0759,10.376412 0.0812,9.954488 0.0754,9.907255 1.29317,10.407177 0.27428,0.112598 8.13355,0.18298 17.46502,0.156407 l 16.96632,-0.04832 z"
     id="path11" />
  <path
     style="fill:#ffcc00;stroke-width:0.245098"
     d="m 143.84796,75.636314 c -1.24466,-0.551506 -1.47339,-1.979247 -0.47675,-2.975886 l 0.60161,-0.601604 h 6.6449 c 4.58174,0 6.81112,0.08853 7.18026,0.285133 1.26224,0.672277 1.47601,1.757069 0.55692,2.826199 l -0.59118,0.687687 -6.57794,0.05759 c -5.14581,0.04505 -6.74338,-0.01572 -7.33782,-0.279118 z"
     id="path12" />
  <path
     style="fill:#ffcc00;stroke-width:0.245098"
     d="m 143.37121,81.506239 c -1.17543,-1.175434 -0.55651,-2.879144 1.16169,-3.197784 0.44563,-0.08264 3.60488,-0.116368 7.02056,-0.07494 l 6.21033,0.07531 0.59114,0.687687 c 0.91906,1.069148 0.70528,2.15393 -0.55695,2.826199 -0.36914,0.196603 -2.59852,0.285133 -7.18026,0.285133 h -6.6449 z"
     id="path13" />
  <path
     style="fill:#ffcc00;stroke-width:0.245098"
     d="m 143.37121,87.63369 c -0.73522,-0.735219 -0.76748,-1.572387 -0.0936,-2.429068 l 0.50799,-0.645798 h 6.97864 6.97865 l 0.6016,0.601604 c 0.33089,0.330882 0.60161,0.887366 0.60161,1.236631 0,0.349265 -0.27072,0.905749 -0.60161,1.236631 l -0.6016,0.601604 h -6.88503 -6.88502 z"
     id="path14" />
  <path
     style="fill:#ffcc00;stroke-width:0.245098"
     d="m 129.10539,86.112186 c -0.94769,-0.382403 0.29818,-3.448562 1.82627,-4.494539 1.26979,-0.869175 3.76301,-0.880163 5.01526,-0.0221 1.09276,0.748769 1.83885,1.848641 2.0535,3.02724 0.28957,1.589927 0.1115,1.654333 -4.51327,1.632375 -2.24146,-0.01064 -4.21325,-0.07498 -4.38176,-0.142974 z"
     id="path15" />
  <path
     style="fill:#ffcc00;stroke-width:0.245098"
     d="m 131.92541,78.981669 c -0.75392,-0.467451 -1.4107,-1.665441 -1.4107,-2.573151 0,-0.972482 1.0086,-2.228109 2.09132,-2.603528 0.84573,-0.293246 1.09143,-0.287185 1.88615,0.04653 1.69792,0.712972 2.38763,2.739687 1.42783,4.195684 -0.89515,1.357934 -2.64966,1.768372 -3.9946,0.934469 z"
     id="path16" />
</svg>
